<svg width="284" height="292" viewBox="0 0 284 292" fill="none" xmlns="http://www.w3.org/2000/svg">
<g filter="url(#filter0_d_2_102)">
<rect x="80" y="70" width="124" height="132" rx="24" fill="#E7FFF7"/>
</g>
<rect x="129" y="173" width="26" height="6" rx="3" fill="#EDF1F5"/>
<rect x="105" y="117" width="74" height="6" rx="3" fill="#000A09"/>
<rect x="105" y="117" width="39" height="6" rx="3" fill="#00FEA8"/>
<rect x="105" y="135" width="74" height="6" rx="3" fill="#000A09"/>
<rect x="105" y="135" width="51" height="6" rx="3" fill="#00FEA8"/>
<rect x="105" y="151" width="74" height="6" rx="3" fill="#000A09"/>
<rect x="105" y="151" width="33" height="6" rx="3" fill="#00FEA8"/>
<path d="M106.444 94.812C106.444 93.996 106.632 93.264 107.008 92.616C107.392 91.968 107.908 91.464 108.556 91.104C109.212 90.736 109.928 90.552 110.704 90.552C111.592 90.552 112.38 90.772 113.068 91.212C113.764 91.644 114.268 92.26 114.58 93.06H112.936C112.72 92.62 112.42 92.292 112.036 92.076C111.652 91.86 111.208 91.752 110.704 91.752C110.152 91.752 109.66 91.876 109.228 92.124C108.796 92.372 108.456 92.728 108.208 93.192C107.968 93.656 107.848 94.196 107.848 94.812C107.848 95.428 107.968 95.968 108.208 96.432C108.456 96.896 108.796 97.256 109.228 97.512C109.66 97.76 110.152 97.884 110.704 97.884C111.208 97.884 111.652 97.776 112.036 97.56C112.42 97.344 112.72 97.016 112.936 96.576H114.58C114.268 97.376 113.764 97.992 113.068 98.424C112.38 98.856 111.592 99.072 110.704 99.072C109.92 99.072 109.204 98.892 108.556 98.532C107.908 98.164 107.392 97.656 107.008 97.008C106.632 96.36 106.444 95.628 106.444 94.812ZM119.049 99.108C118.425 99.108 117.861 98.968 117.357 98.688C116.853 98.4 116.457 98 116.169 97.488C115.881 96.968 115.737 96.368 115.737 95.688C115.737 95.016 115.885 94.42 116.181 93.9C116.477 93.38 116.881 92.98 117.393 92.7C117.905 92.42 118.477 92.28 119.109 92.28C119.741 92.28 120.313 92.42 120.825 92.7C121.337 92.98 121.741 93.38 122.037 93.9C122.333 94.42 122.481 95.016 122.481 95.688C122.481 96.36 122.329 96.956 122.025 97.476C121.721 97.996 121.305 98.4 120.777 98.688C120.257 98.968 119.681 99.108 119.049 99.108ZM119.049 97.92C119.401 97.92 119.729 97.836 120.033 97.668C120.345 97.5 120.597 97.248 120.789 96.912C120.981 96.576 121.077 96.168 121.077 95.688C121.077 95.208 120.985 94.804 120.801 94.476C120.617 94.14 120.373 93.888 120.069 93.72C119.765 93.552 119.437 93.468 119.085 93.468C118.733 93.468 118.405 93.552 118.101 93.72C117.805 93.888 117.569 94.14 117.393 94.476C117.217 94.804 117.129 95.208 117.129 95.688C117.129 96.4 117.309 96.952 117.669 97.344C118.037 97.728 118.497 97.92 119.049 97.92ZM131.838 92.28C132.358 92.28 132.822 92.388 133.23 92.604C133.646 92.82 133.97 93.14 134.202 93.564C134.442 93.988 134.562 94.5 134.562 95.1V99H133.206V95.304C133.206 94.712 133.058 94.26 132.762 93.948C132.466 93.628 132.062 93.468 131.55 93.468C131.038 93.468 130.63 93.628 130.326 93.948C130.03 94.26 129.882 94.712 129.882 95.304V99H128.526V95.304C128.526 94.712 128.378 94.26 128.082 93.948C127.786 93.628 127.382 93.468 126.87 93.468C126.358 93.468 125.95 93.628 125.646 93.948C125.35 94.26 125.202 94.712 125.202 95.304V99H123.834V92.388H125.202V93.144C125.426 92.872 125.71 92.66 126.054 92.508C126.398 92.356 126.766 92.28 127.158 92.28C127.686 92.28 128.158 92.392 128.574 92.616C128.99 92.84 129.31 93.164 129.534 93.588C129.734 93.188 130.046 92.872 130.47 92.64C130.894 92.4 131.35 92.28 131.838 92.28ZM144.306 92.28C144.826 92.28 145.29 92.388 145.698 92.604C146.114 92.82 146.438 93.14 146.67 93.564C146.91 93.988 147.03 94.5 147.03 95.1V99H145.674V95.304C145.674 94.712 145.526 94.26 145.23 93.948C144.934 93.628 144.53 93.468 144.018 93.468C143.506 93.468 143.098 93.628 142.794 93.948C142.498 94.26 142.35 94.712 142.35 95.304V99H140.994V95.304C140.994 94.712 140.846 94.26 140.55 93.948C140.254 93.628 139.85 93.468 139.338 93.468C138.826 93.468 138.418 93.628 138.114 93.948C137.818 94.26 137.67 94.712 137.67 95.304V99H136.302V92.388H137.67V93.144C137.894 92.872 138.178 92.66 138.522 92.508C138.866 92.356 139.234 92.28 139.626 92.28C140.154 92.28 140.626 92.392 141.042 92.616C141.458 92.84 141.778 93.164 142.002 93.588C142.202 93.188 142.514 92.872 142.938 92.64C143.362 92.4 143.818 92.28 144.306 92.28ZM154.759 92.388V99L153.391 99V98.22C153.175 98.492 152.891 98.708 152.539 98.868C152.195 99.02 151.827 99.096 151.435 99.096C150.915 99.096 150.447 98.988 150.031 98.772C149.623 98.556 149.299 98.236 149.059 97.812C148.827 97.388 148.711 96.876 148.711 96.276V92.388H150.067V96.072C150.067 96.664 150.215 97.12 150.511 97.44C150.807 97.752 151.211 97.908 151.723 97.908C152.235 97.908 152.639 97.752 152.935 97.44C153.239 97.12 153.391 96.664 153.391 96.072V92.388H154.759ZM159.9 92.28C160.42 92.28 160.884 92.388 161.292 92.604C161.708 92.82 162.032 93.14 162.264 93.564C162.496 93.988 162.612 94.5 162.612 95.1V99H161.256V95.304C161.256 94.712 161.108 94.26 160.812 93.948C160.516 93.628 160.112 93.468 159.6 93.468C159.088 93.468 158.68 93.628 158.376 93.948C158.08 94.26 157.932 94.712 157.932 95.304V99H156.564V92.388H157.932V93.144C158.156 92.872 158.44 92.66 158.784 92.508C159.136 92.356 159.508 92.28 159.9 92.28ZM165.053 91.512C164.805 91.512 164.597 91.428 164.429 91.26C164.261 91.092 164.177 90.884 164.177 90.636C164.177 90.388 164.261 90.18 164.429 90.012C164.597 89.844 164.805 89.76 165.053 89.76C165.293 89.76 165.497 89.844 165.665 90.012C165.833 90.18 165.917 90.388 165.917 90.636C165.917 90.884 165.833 91.092 165.665 91.26C165.497 91.428 165.293 91.512 165.053 91.512ZM165.725 92.388V99H164.357V92.388H165.725ZM169.117 93.504V97.164C169.117 97.412 169.173 97.592 169.285 97.704C169.405 97.808 169.605 97.86 169.885 97.86H170.725V99H169.645C169.029 99 168.557 98.856 168.229 98.568C167.901 98.28 167.737 97.812 167.737 97.164V93.504H166.957V92.388H167.737V90.744H169.117V92.388H170.725V93.504H169.117ZM177.938 92.388L173.882 102.108H172.466L173.81 98.892L171.206 92.388H172.73L174.59 97.428L176.522 92.388H177.938Z" fill="#0D1111"/>
<defs>
<filter id="filter0_d_2_102" x="0" y="0" width="284" height="292" filterUnits="userSpaceOnUse" color-interpolation-filters="sRGB">
<feFlood flood-opacity="0" result="BackgroundImageFix"/>
<feColorMatrix in="SourceAlpha" type="matrix" values="0 0 0 0 0 0 0 0 0 0 0 0 0 0 0 0 0 0 127 0" result="hardAlpha"/>
<feOffset dy="10"/>
<feGaussianBlur stdDeviation="40"/>
<feColorMatrix type="matrix" values="0 0 0 0 0 0 0 0 0 0 0 0 0 0 0 0 0 0 0.05 0"/>
<feBlend mode="normal" in2="BackgroundImageFix" result="effect1_dropShadow_2_102"/>
<feBlend mode="normal" in="SourceGraphic" in2="effect1_dropShadow_2_102" result="shape"/>
</filter>
</defs>
</svg>
