<svg width="28" height="32" viewBox="0 0 28 32" fill="none" xmlns="http://www.w3.org/2000/svg">
<path d="M22.1575 30.0379H5.84375C3.63461 30.0379 1.84375 28.247 1.84375 26.0379V5.9624C1.84375 3.75326 3.63461 1.9624 5.84375 1.9624H17.4197L26.1575 10.0341V26.0379C26.1575 28.247 24.3666 30.0379 22.1575 30.0379Z" fill="#00FEA8"/>
<path d="M17.4197 1.9624H5.84375C3.63461 1.9624 1.84375 3.75326 1.84375 5.9624V26.0379C1.84375 28.247 3.63461 30.0379 5.84375 30.0379H22.1575C24.3666 30.0379 26.1575 28.247 26.1575 26.0379V10.0341M17.4197 1.9624L26.1575 10.0341M17.4197 1.9624V8.0341C17.4197 9.13867 18.3152 10.0341 19.4197 10.0341H26.1575" stroke="white" stroke-width="3" stroke-linejoin="round"/>
</svg>
