<svg width="107" height="41" viewBox="0 0 107 41" fill="none" xmlns="http://www.w3.org/2000/svg">
<path d="M0 4C0 1.79086 1.79086 0 4 0H34C35.1046 0 36 0.895431 36 2V38C36 39.1046 35.1046 40 34 40H4C1.79086 40 0 38.2091 0 36V4Z" fill="#00FEA8"/>
<path d="M6 32H30C31.1046 32 32 31.1046 32 30C32 28.8954 31.1046 28 30 28H6C4.89543 28 4 28.8954 4 30C4 31.1046 4.89543 32 6 32Z" fill="#001C15"/>
<path d="M52.444 13.812C52.444 12.996 52.632 12.264 53.008 11.616C53.392 10.968 53.908 10.464 54.556 10.104C55.212 9.736 55.928 9.552 56.704 9.552C57.592 9.552 58.38 9.772 59.068 10.212C59.764 10.644 60.268 11.26 60.58 12.06H58.936C58.72 11.62 58.42 11.292 58.036 11.076C57.652 10.86 57.208 10.752 56.704 10.752C56.152 10.752 55.66 10.876 55.228 11.124C54.796 11.372 54.456 11.728 54.208 12.192C53.968 12.656 53.848 13.196 53.848 13.812C53.848 14.428 53.968 14.968 54.208 15.432C54.456 15.896 54.796 16.256 55.228 16.512C55.66 16.76 56.152 16.884 56.704 16.884C57.208 16.884 57.652 16.776 58.036 16.56C58.42 16.344 58.72 16.016 58.936 15.576H60.58C60.268 16.376 59.764 16.992 59.068 17.424C58.38 17.856 57.592 18.072 56.704 18.072C55.92 18.072 55.204 17.892 54.556 17.532C53.908 17.164 53.392 16.656 53.008 16.008C52.632 15.36 52.444 14.628 52.444 13.812ZM65.0493 18.108C64.4253 18.108 63.8613 17.968 63.3573 17.688C62.8533 17.4 62.4573 17 62.1693 16.488C61.8813 15.968 61.7373 15.368 61.7373 14.688C61.7373 14.016 61.8853 13.42 62.1813 12.9C62.4773 12.38 62.8813 11.98 63.3933 11.7C63.9053 11.42 64.4773 11.28 65.1093 11.28C65.7413 11.28 66.3133 11.42 66.8253 11.7C67.3373 11.98 67.7413 12.38 68.0373 12.9C68.3333 13.42 68.4813 14.016 68.4813 14.688C68.4813 15.36 68.3293 15.956 68.0253 16.476C67.7213 16.996 67.3053 17.4 66.7773 17.688C66.2573 17.968 65.6813 18.108 65.0493 18.108ZM65.0493 16.92C65.4013 16.92 65.7293 16.836 66.0333 16.668C66.3453 16.5 66.5973 16.248 66.7893 15.912C66.9813 15.576 67.0773 15.168 67.0773 14.688C67.0773 14.208 66.9853 13.804 66.8013 13.476C66.6173 13.14 66.3733 12.888 66.0693 12.72C65.7653 12.552 65.4373 12.468 65.0853 12.468C64.7333 12.468 64.4053 12.552 64.1013 12.72C63.8053 12.888 63.5693 13.14 63.3933 13.476C63.2173 13.804 63.1293 14.208 63.1293 14.688C63.1293 15.4 63.3093 15.952 63.6693 16.344C64.0373 16.728 64.4973 16.92 65.0493 16.92ZM75.8216 11.388V18H74.4536V17.22C74.2376 17.492 73.9536 17.708 73.6016 17.868C73.2576 18.02 72.8896 18.096 72.4976 18.096C71.9776 18.096 71.5096 17.988 71.0936 17.772C70.6856 17.556 70.3616 17.236 70.1216 16.812C69.8896 16.388 69.7736 15.876 69.7736 15.276V11.388H71.1296V15.072C71.1296 15.664 71.2776 16.12 71.5736 16.44C71.8696 16.752 72.2736 16.908 72.7856 16.908C73.2976 16.908 73.7016 16.752 73.9976 16.44C74.3016 16.12 74.4536 15.664 74.4536 15.072V11.388H75.8216ZM78.9946 12.348C79.1946 12.012 79.4586 11.752 79.7866 11.568C80.1226 11.376 80.5186 11.28 80.9746 11.28V12.696H80.6266C80.0906 12.696 79.6826 12.832 79.4026 13.104C79.1306 13.376 78.9946 13.848 78.9946 14.52V18H77.6266V11.388H78.9946V12.348ZM84.632 18.108C84.112 18.108 83.644 18.016 83.228 17.832C82.82 17.64 82.496 17.384 82.256 17.064C82.016 16.736 81.888 16.372 81.872 15.972H83.288C83.312 16.252 83.444 16.488 83.684 16.68C83.932 16.864 84.24 16.956 84.608 16.956C84.992 16.956 85.288 16.884 85.496 16.74C85.712 16.588 85.82 16.396 85.82 16.164C85.82 15.916 85.7 15.732 85.46 15.612C85.228 15.492 84.856 15.36 84.344 15.216C83.848 15.08 83.444 14.948 83.132 14.82C82.82 14.692 82.548 14.496 82.316 14.232C82.092 13.968 81.98 13.62 81.98 13.188C81.98 12.836 82.084 12.516 82.292 12.228C82.5 11.932 82.796 11.7 83.18 11.532C83.572 11.364 84.02 11.28 84.524 11.28C85.276 11.28 85.88 11.472 86.336 11.856C86.8 12.232 87.048 12.748 87.08 13.404H85.712C85.688 13.108 85.568 12.872 85.352 12.696C85.136 12.52 84.844 12.432 84.476 12.432C84.116 12.432 83.84 12.5 83.648 12.636C83.456 12.772 83.36 12.952 83.36 13.176C83.36 13.352 83.424 13.5 83.552 13.62C83.68 13.74 83.836 13.836 84.02 13.908C84.204 13.972 84.476 14.056 84.836 14.16C85.316 14.288 85.708 14.42 86.012 14.556C86.324 14.684 86.592 14.876 86.816 15.132C87.04 15.388 87.156 15.728 87.164 16.152C87.164 16.528 87.06 16.864 86.852 17.16C86.644 17.456 86.348 17.688 85.964 17.856C85.588 18.024 85.144 18.108 84.632 18.108ZM94.7022 14.532C94.7022 14.78 94.6862 15.004 94.6542 15.204H89.6022C89.6422 15.732 89.8382 16.156 90.1902 16.476C90.5422 16.796 90.9742 16.956 91.4862 16.956C92.2222 16.956 92.7422 16.648 93.0462 16.032H94.5222C94.3222 16.64 93.9582 17.14 93.4302 17.532C92.9102 17.916 92.2622 18.108 91.4862 18.108C90.8542 18.108 90.2862 17.968 89.7822 17.688C89.2862 17.4 88.8942 17 88.6062 16.488C88.3262 15.968 88.1862 15.368 88.1862 14.688C88.1862 14.008 88.3222 13.412 88.5942 12.9C88.8742 12.38 89.2622 11.98 89.7582 11.7C90.2622 11.42 90.8382 11.28 91.4862 11.28C92.1102 11.28 92.6662 11.416 93.1542 11.688C93.6422 11.96 94.0222 12.344 94.2942 12.84C94.5662 13.328 94.7022 13.892 94.7022 14.532ZM93.2742 14.1C93.2662 13.596 93.0862 13.192 92.7342 12.888C92.3822 12.584 91.9462 12.432 91.4262 12.432C90.9542 12.432 90.5502 12.584 90.2142 12.888C89.8782 13.184 89.6782 13.588 89.6142 14.1H93.2742ZM98.4484 18.108C97.9284 18.108 97.4604 18.016 97.0444 17.832C96.6364 17.64 96.3124 17.384 96.0724 17.064C95.8324 16.736 95.7044 16.372 95.6884 15.972H97.1044C97.1284 16.252 97.2604 16.488 97.5004 16.68C97.7484 16.864 98.0564 16.956 98.4244 16.956C98.8084 16.956 99.1044 16.884 99.3124 16.74C99.5284 16.588 99.6364 16.396 99.6364 16.164C99.6364 15.916 99.5164 15.732 99.2764 15.612C99.0444 15.492 98.6724 15.36 98.1604 15.216C97.6644 15.08 97.2604 14.948 96.9484 14.82C96.6364 14.692 96.3644 14.496 96.1324 14.232C95.9084 13.968 95.7964 13.62 95.7964 13.188C95.7964 12.836 95.9004 12.516 96.1084 12.228C96.3164 11.932 96.6124 11.7 96.9964 11.532C97.3884 11.364 97.8364 11.28 98.3404 11.28C99.0924 11.28 99.6964 11.472 100.152 11.856C100.616 12.232 100.864 12.748 100.896 13.404H99.5284C99.5044 13.108 99.3844 12.872 99.1684 12.696C98.9524 12.52 98.6604 12.432 98.2924 12.432C97.9324 12.432 97.6564 12.5 97.4644 12.636C97.2724 12.772 97.1764 12.952 97.1764 13.176C97.1764 13.352 97.2404 13.5 97.3684 13.62C97.4964 13.74 97.6524 13.836 97.8364 13.908C98.0204 13.972 98.2924 14.056 98.6524 14.16C99.1324 14.288 99.5244 14.42 99.8284 14.556C100.14 14.684 100.408 14.876 100.632 15.132C100.856 15.388 100.972 15.728 100.98 16.152C100.98 16.528 100.876 16.864 100.668 17.16C100.46 17.456 100.164 17.688 99.7804 17.856C99.4044 18.024 98.9604 18.108 98.4484 18.108ZM52.54 28.5V27.252H55.036V36H53.656V28.5H52.54ZM56.9153 31.512C56.9153 30.128 57.1473 29.048 57.6113 28.272C58.0833 27.488 58.8913 27.096 60.0353 27.096C61.1793 27.096 61.9833 27.488 62.4473 28.272C62.9193 29.048 63.1553 30.128 63.1553 31.512C63.1553 32.912 62.9193 34.008 62.4473 34.8C61.9833 35.584 61.1793 35.976 60.0353 35.976C58.8913 35.976 58.0833 35.584 57.6113 34.8C57.1473 34.008 56.9153 32.912 56.9153 31.512ZM61.8113 31.512C61.8113 30.864 61.7673 30.316 61.6793 29.868C61.5993 29.42 61.4313 29.056 61.1753 28.776C60.9193 28.488 60.5393 28.344 60.0353 28.344C59.5313 28.344 59.1513 28.488 58.8953 28.776C58.6393 29.056 58.4673 29.42 58.3793 29.868C58.2993 30.316 58.2593 30.864 58.2593 31.512C58.2593 32.184 58.2993 32.748 58.3793 33.204C58.4593 33.66 58.6273 34.028 58.8833 34.308C59.1473 34.588 59.5313 34.728 60.0353 34.728C60.5393 34.728 60.9193 34.588 61.1753 34.308C61.4393 34.028 61.6113 33.66 61.6913 33.204C61.7713 32.748 61.8113 32.184 61.8113 31.512ZM64.6028 31.512C64.6028 30.128 64.8348 29.048 65.2988 28.272C65.7708 27.488 66.5788 27.096 67.7228 27.096C68.8668 27.096 69.6708 27.488 70.1348 28.272C70.6068 29.048 70.8428 30.128 70.8428 31.512C70.8428 32.912 70.6068 34.008 70.1348 34.8C69.6708 35.584 68.8668 35.976 67.7228 35.976C66.5788 35.976 65.7708 35.584 65.2988 34.8C64.8348 34.008 64.6028 32.912 64.6028 31.512ZM69.4988 31.512C69.4988 30.864 69.4548 30.316 69.3668 29.868C69.2868 29.42 69.1188 29.056 68.8628 28.776C68.6068 28.488 68.2268 28.344 67.7228 28.344C67.2188 28.344 66.8388 28.488 66.5828 28.776C66.3268 29.056 66.1548 29.42 66.0668 29.868C65.9868 30.316 65.9468 30.864 65.9468 31.512C65.9468 32.184 65.9868 32.748 66.0668 33.204C66.1468 33.66 66.3148 34.028 66.5708 34.308C66.8348 34.588 67.2188 34.728 67.7228 34.728C68.2268 34.728 68.6068 34.588 68.8628 34.308C69.1268 34.028 69.2988 33.66 69.3788 33.204C69.4588 32.748 69.4988 32.184 69.4988 31.512ZM72.2903 31.512C72.2903 30.128 72.5223 29.048 72.9863 28.272C73.4583 27.488 74.2663 27.096 75.4103 27.096C76.5543 27.096 77.3583 27.488 77.8223 28.272C78.2943 29.048 78.5303 30.128 78.5303 31.512C78.5303 32.912 78.2943 34.008 77.8223 34.8C77.3583 35.584 76.5543 35.976 75.4103 35.976C74.2663 35.976 73.4583 35.584 72.9863 34.8C72.5223 34.008 72.2903 32.912 72.2903 31.512ZM77.1863 31.512C77.1863 30.864 77.1423 30.316 77.0543 29.868C76.9743 29.42 76.8063 29.056 76.5503 28.776C76.2943 28.488 75.9143 28.344 75.4103 28.344C74.9063 28.344 74.5263 28.488 74.2703 28.776C74.0143 29.056 73.8423 29.42 73.7543 29.868C73.6743 30.316 73.6343 30.864 73.6343 31.512C73.6343 32.184 73.6743 32.748 73.7543 33.204C73.8343 33.66 74.0023 34.028 74.2583 34.308C74.5223 34.588 74.9063 34.728 75.4103 34.728C75.9143 34.728 76.2943 34.588 76.5503 34.308C76.8143 34.028 76.9863 33.66 77.0663 33.204C77.1463 32.748 77.1863 32.184 77.1863 31.512ZM86.6018 32.244H84.1778V34.728H82.9058V32.244H80.4818V31.092H82.9058V28.608H84.1778V31.092H86.6018V32.244Z" fill="#0D1111"/>
</svg>
