<svg width="40" height="41" viewBox="0 0 40 41" fill="none" xmlns="http://www.w3.org/2000/svg">
<ellipse cx="20" cy="20.7094" rx="20" ry="19.9262" fill="white"/>
<g clip-path="url(#clip0_10_11)">
<path d="M24 20.7094C24 19.6093 23.6094 18.6701 22.8281 17.8917C22.0469 17.1133 21.1042 16.7241 20 16.7241C18.8958 16.7241 17.9531 17.1133 17.1719 17.8917C16.3906 18.6701 16 19.6093 16 20.7094C16 21.8095 16.3906 22.7487 17.1719 23.5271C17.9531 24.3054 18.8958 24.6946 20 24.6946C21.1042 24.6946 22.0469 24.3054 22.8281 23.5271C23.6094 22.7487 24 21.8095 24 20.7094ZM26.1562 20.7094C26.1562 22.4114 25.5573 23.8592 24.3594 25.0527C23.1615 26.2462 21.7083 26.8429 20 26.8429C18.2917 26.8429 16.8385 26.2462 15.6406 25.0527C14.4427 23.8592 13.8438 22.4114 13.8438 20.7094C13.8438 19.0074 14.4427 17.5596 15.6406 16.3661C16.8385 15.1726 18.2917 14.5758 20 14.5758C21.7083 14.5758 23.1615 15.1726 24.3594 16.3661C25.5573 17.5596 26.1562 19.0074 26.1562 20.7094ZM27.8438 14.3268C27.8438 14.7211 27.7031 15.0584 27.4219 15.3386C27.1406 15.6189 26.8021 15.759 26.4062 15.759C26.0104 15.759 25.6719 15.6189 25.3906 15.3386C25.1094 15.0584 24.9688 14.7211 24.9688 14.3268C24.9688 13.9324 25.1094 13.5951 25.3906 13.3149C25.6719 13.0347 26.0104 12.8946 26.4062 12.8946C26.8021 12.8946 27.1406 13.0347 27.4219 13.3149C27.7031 13.5951 27.8438 13.9324 27.8438 14.3268ZM20 10.902C19.9271 10.902 19.5286 10.8994 18.8047 10.8942C18.0807 10.889 17.5312 10.889 17.1562 10.8942C16.7812 10.8994 16.2786 10.9149 15.6484 10.9409C15.0182 10.9668 14.4818 11.0187 14.0391 11.0965C13.5964 11.1744 13.224 11.2704 12.9219 11.3845C12.401 11.5921 11.9427 11.8931 11.5469 12.2874C11.151 12.6818 10.849 13.1385 10.6406 13.6574C10.526 13.9583 10.4297 14.3294 10.3516 14.7704C10.2734 15.2115 10.2214 15.746 10.1953 16.3739C10.1693 17.0018 10.1536 17.5025 10.1484 17.8761C10.1432 18.2497 10.1432 18.7972 10.1484 19.5185C10.1536 20.2398 10.1562 20.6367 10.1562 20.7094C10.1562 20.782 10.1536 21.179 10.1484 21.9003C10.1432 22.6216 10.1432 23.169 10.1484 23.5426C10.1536 23.9163 10.1693 24.417 10.1953 25.0449C10.2214 25.6728 10.2734 26.2072 10.3516 26.6483C10.4297 27.0894 10.526 27.4604 10.6406 27.7614C10.849 28.2803 11.151 28.7369 11.5469 29.1313C11.9427 29.5257 12.401 29.8267 12.9219 30.0342C13.224 30.1484 13.5964 30.2444 14.0391 30.3222C14.4818 30.4001 15.0182 30.4519 15.6484 30.4779C16.2786 30.5038 16.7812 30.5194 17.1562 30.5246C17.5312 30.5298 18.0807 30.5298 18.8047 30.5246C19.5286 30.5194 19.9271 30.5168 20 30.5168C20.0729 30.5168 20.4714 30.5194 21.1953 30.5246C21.9193 30.5298 22.4688 30.5298 22.8438 30.5246C23.2188 30.5194 23.7214 30.5038 24.3516 30.4779C24.9818 30.4519 25.5182 30.4001 25.9609 30.3222C26.4036 30.2444 26.776 30.1484 27.0781 30.0342C27.599 29.8267 28.0573 29.5257 28.4531 29.1313C28.849 28.7369 29.151 28.2803 29.3594 27.7614C29.474 27.4604 29.5703 27.0894 29.6484 26.6483C29.7266 26.2072 29.7786 25.6728 29.8047 25.0449C29.8307 24.417 29.8464 23.9163 29.8516 23.5426C29.8568 23.169 29.8568 22.6216 29.8516 21.9003C29.8464 21.179 29.8438 20.782 29.8438 20.7094C29.8438 20.6367 29.8464 20.2398 29.8516 19.5185C29.8568 18.7972 29.8568 18.2497 29.8516 17.8761C29.8464 17.5025 29.8307 17.0018 29.8047 16.3739C29.7786 15.746 29.7266 15.2115 29.6484 14.7704C29.5703 14.3294 29.474 13.9583 29.3594 13.6574C29.151 13.1385 28.849 12.6818 28.4531 12.2874C28.0573 11.8931 27.599 11.5921 27.0781 11.3845C26.776 11.2704 26.4036 11.1744 25.9609 11.0965C25.5182 11.0187 24.9818 10.9668 24.3516 10.9409C23.7214 10.9149 23.2188 10.8994 22.8438 10.8942C22.4688 10.889 21.9193 10.889 21.1953 10.8942C20.4714 10.8994 20.0729 10.902 20 10.902ZM32 20.7094C32 23.086 31.974 24.7309 31.9219 25.6442C31.8177 27.8029 31.1719 29.4738 29.9844 30.6569C28.7969 31.84 27.1198 32.4835 24.9531 32.5873C24.0365 32.6392 22.3854 32.6651 20 32.6651C17.6146 32.6651 15.9635 32.6392 15.0469 32.5873C12.8802 32.4835 11.2031 31.84 10.0156 30.6569C8.82812 29.4738 8.18229 27.8029 8.07812 25.6442C8.02604 24.7309 8 23.086 8 20.7094C8 18.3328 8.02604 16.6878 8.07812 15.7745C8.18229 13.6159 8.82812 11.945 10.0156 10.7618C11.2031 9.57873 12.8802 8.93528 15.0469 8.8315C15.9635 8.77961 17.6146 8.75366 20 8.75366C22.3854 8.75366 24.0365 8.77961 24.9531 8.8315C27.1198 8.93528 28.7969 9.57873 29.9844 10.7618C31.1719 11.945 31.8177 13.6159 31.9219 15.7745C31.974 16.6878 32 18.3328 32 20.7094Z" fill="#000A09"/>
</g>
<defs>
<clipPath id="clip0_10_11">
<rect width="24" height="23.9114" fill="white" transform="translate(8 8.75366)"/>
</clipPath>
</defs>
</svg>
