<svg width="34" height="34" viewBox="0 0 34 34" fill="none" xmlns="http://www.w3.org/2000/svg">
<path d="M2.41406 6.96241C2.41406 4.75327 4.20492 2.9624 6.41406 2.9624H27.5905C29.7997 2.9624 31.5905 4.75326 31.5905 6.9624V20.019C31.5905 22.2281 29.7997 24.019 27.5905 24.019H17.0023H6.41406C4.20493 24.019 2.41406 22.2281 2.41406 20.019V6.96241Z" fill="#001C15"/>
<path d="M17.0023 31.0379V24.019M17.0023 31.0379H8.24936M17.0023 31.0379H25.7552M17.0023 24.019H27.5905C29.7997 24.019 31.5905 22.2281 31.5905 20.019V6.9624C31.5905 4.75326 29.7997 2.9624 27.5905 2.9624H6.41406C4.20492 2.9624 2.41406 4.75327 2.41406 6.96241V20.019C2.41406 22.2281 4.20493 24.019 6.41406 24.019H17.0023Z" stroke="white" stroke-width="4" stroke-linecap="round"/>
</svg>
