<svg width="40" height="41" viewBox="0 0 40 41" fill="none" xmlns="http://www.w3.org/2000/svg">
<circle cx="20" cy="20.9092" r="20" fill="#00FEA8"/>
<path d="M17.9779 15.3757C17.1973 16.3202 15.9452 17.8354 15.6716 19.6586C15.5651 20.3681 15.4587 21.6217 16.9729 21.9056C18.3578 22.1651 19.9305 24.5073 18.0377 26.9908C17.1043 28.2154 13.4983 29.1196 11.8859 25.3352C10.9789 23.2064 10.7975 17.9556 17.3278 13.982C18.0274 13.5562 19.1155 13.7455 18.5109 14.6915C18.4003 14.8646 18.2099 15.0949 17.9779 15.3757Z" fill="#001C15"/>
<path d="M27.6358 15.3757C26.8553 16.3202 25.6031 17.8354 25.3295 19.6586C25.2231 20.3681 25.1166 21.6217 26.6309 21.9056C28.0158 22.1651 29.5885 24.5073 27.6956 26.9908C26.7623 28.2154 23.1563 29.1196 21.5438 25.3352C20.6368 23.2064 20.4555 17.9556 26.9858 13.982C27.6853 13.5562 28.7735 13.7455 28.1688 14.6915C28.0582 14.8646 27.8679 15.0949 27.6358 15.3757Z" fill="#001C15"/>
</svg>
