<svg width="40" height="41" viewBox="0 0 40 41" fill="none" xmlns="http://www.w3.org/2000/svg">
<ellipse cx="20" cy="20.7094" rx="20" ry="19.9262" fill="white"/>
<path d="M32 14.9679L29.75 15.3415L31.25 13.4735L28.625 14.2207C25.25 10.4845 20 14.5943 21.5 17.9569C15.5 17.9569 12.5 13.4735 12.5 13.4735C12.5 13.4735 10.25 16.836 14 19.4513L11.75 18.7041C11.75 20.9458 13.25 22.4403 15.875 23.1875H13.25C14.75 26.1764 17.375 26.1764 17.375 26.1764C17.375 26.1764 15.125 28.0445 11 28.0445C23.375 34.0224 30.875 22.8139 29.75 16.836L32 14.9679Z" fill="#000A09"/>
</svg>
