<svg width="40" height="40" viewBox="0 0 40 40" fill="none" xmlns="http://www.w3.org/2000/svg">
<path d="M36.6667 27.9V7.78336C36.6667 5.78336 35.0334 4.30003 33.05 4.4667H32.95C29.45 4.7667 24.1334 6.55003 21.1667 8.4167L20.8834 8.60003C20.4 8.90003 19.6 8.90003 19.1167 8.60003L18.7 8.35003C15.7334 6.50003 10.4334 4.73336 6.93337 4.45003C4.95004 4.28336 3.33337 5.78336 3.33337 7.7667V27.9C3.33337 29.5 4.63337 31 6.23337 31.2L6.71671 31.2667C10.3334 31.75 15.9167 33.5834 19.1167 35.3334L19.1834 35.3667C19.6334 35.6167 20.35 35.6167 20.7834 35.3667C23.9834 33.6 29.5834 31.75 33.2167 31.2667L33.7667 31.2C35.3667 31 36.6667 29.5 36.6667 27.9Z" stroke="#292D32" stroke-width="3" stroke-linecap="round" stroke-linejoin="round"/>
<path d="M20 9.15002V34.15" stroke="#292D32" stroke-width="3" stroke-linecap="round" stroke-linejoin="round"/>
<path d="M12.9166 14.15H9.16663" stroke="#292D32" stroke-width="3" stroke-linecap="round" stroke-linejoin="round"/>
<path d="M14.1666 19.15H9.16663" stroke="#292D32" stroke-width="3" stroke-linecap="round" stroke-linejoin="round"/>
</svg>
