<svg width="32" height="32" viewBox="0 0 32 32" fill="none" xmlns="http://www.w3.org/2000/svg">
<path d="M23 2L24.593 5L28 5.414L25.5 7.667L26 11L23 9.125L20 11L20.5 7.667L18 5.414L21.5 5L23 2Z" fill="#111111"/>
<path d="M22.7162 13.2492L20.7782 12.7512C20.4308 14.0894 19.6946 15.2947 18.6625 16.2147C17.6305 17.1347 16.3489 17.7281 14.9797 17.9201C13.6105 18.1121 12.2151 17.8939 10.9698 17.2932C9.72456 16.6925 8.68526 15.7362 7.98325 14.5451C7.28123 13.354 6.948 11.9815 7.02564 10.6011C7.10328 9.2207 7.58831 7.89426 8.41946 6.78939C9.25061 5.68451 10.3906 4.85077 11.6954 4.39348C13.0001 3.93619 14.4112 3.87589 15.7502 4.22018L16.2492 2.28318C14.2972 1.77543 12.2312 1.93886 10.3832 2.74719C8.53533 3.55552 7.01292 4.96178 6.0608 6.73989C5.10868 8.51799 4.78216 10.5646 5.13374 12.5507C5.48532 14.5368 6.49457 16.347 7.99923 17.6902V30.0002L13.9992 26.0002L19.9992 30.0002V17.7082C21.3274 16.5244 22.2732 14.9722 22.7162 13.2492ZM17.9992 26.2632L13.9992 23.5962L9.99923 26.2632V19.0502C11.2403 19.6736 12.6097 19.9988 13.9985 19.9998C15.3874 20.0009 16.7573 19.6778 17.9992 19.0562V26.2632Z" fill="#111111"/>
</svg>
