<svg width="34" height="34" viewBox="0 0 34 34" fill="none" xmlns="http://www.w3.org/2000/svg">
<path d="M17.0023 31.0378C25.0592 31.0378 31.5905 24.7528 31.5905 17C31.5905 9.24719 25.0592 2.96228 17.0023 2.96228C8.94544 2.96228 2.41406 9.24719 2.41406 17C2.41406 19.4101 3.04522 21.6783 4.15716 23.6599C4.42654 24.14 4.52785 24.7015 4.3965 25.2361L3.14347 30.3359L7.2189 28.656C7.85949 28.3919 8.58587 28.4871 9.17664 28.8491C11.438 30.2349 14.1227 31.0378 17.0023 31.0378Z" stroke="white" stroke-width="4" stroke-linejoin="round"/>
<ellipse cx="9.70634" cy="17" rx="1.82353" ry="1.75472" fill="white"/>
<ellipse cx="16.9993" cy="17" rx="1.82353" ry="1.75472" fill="white"/>
<ellipse cx="24.2962" cy="17" rx="1.82353" ry="1.75472" fill="white"/>
</svg>
