<svg width="34" height="34" viewBox="0 0 34 34" fill="none" xmlns="http://www.w3.org/2000/svg">
<path d="M2.41406 6.96228C2.41406 4.75315 4.20492 2.96228 6.41406 2.96228H27.5905C29.7997 2.96228 31.5905 4.75314 31.5905 6.96228V20.0189C31.5905 22.228 29.7997 24.0189 27.5905 24.0189H17.0023H6.41406C4.20493 24.0189 2.41406 22.228 2.41406 20.0189V6.96228Z" fill="#001C15"/>
<path d="M17.0023 31.0378V24.0189M17.0023 31.0378H8.24936M17.0023 31.0378H25.7552M17.0023 24.0189H27.5905C29.7997 24.0189 31.5905 22.228 31.5905 20.0189V6.96228C31.5905 4.75314 29.7997 2.96228 27.5905 2.96228H6.41406C4.20492 2.96228 2.41406 4.75315 2.41406 6.96228V20.0189C2.41406 22.228 4.20493 24.0189 6.41406 24.0189H17.0023Z" stroke="white" stroke-width="4" stroke-linecap="round"/>
</svg>


