<svg width="40" height="40" viewBox="0 0 40 40" fill="none" xmlns="http://www.w3.org/2000/svg">
<path d="M19.9987 3.3335C29.2037 3.3335 36.6654 10.7952 36.6654 20.0002C36.6654 29.2052 29.2037 36.6668 19.9987 36.6668C10.7937 36.6668 3.33203 29.2052 3.33203 20.0002C3.33203 10.7952 10.7937 3.3335 19.9987 3.3335ZM19.9987 6.66683C16.4625 6.66683 13.0711 8.07159 10.5706 10.5721C8.07012 13.0726 6.66536 16.4639 6.66536 20.0002C6.66536 23.5364 8.07012 26.9278 10.5706 29.4283C13.0711 31.9287 16.4625 33.3335 19.9987 33.3335C23.5349 33.3335 26.9263 31.9287 29.4268 29.4283C31.9273 26.9278 33.332 23.5364 33.332 20.0002C33.332 16.4639 31.9273 13.0726 29.4268 10.5721C26.9263 8.07159 23.5349 6.66683 19.9987 6.66683ZM19.9987 26.6668C20.4407 26.6668 20.8646 26.8424 21.1772 27.155C21.4898 27.4675 21.6654 27.8915 21.6654 28.3335C21.6654 28.7755 21.4898 29.1994 21.1772 29.512C20.8646 29.8246 20.4407 30.0002 19.9987 30.0002C19.5567 30.0002 19.1327 29.8246 18.8202 29.512C18.5076 29.1994 18.332 28.7755 18.332 28.3335C18.332 27.8915 18.5076 27.4675 18.8202 27.155C19.1327 26.8424 19.5567 26.6668 19.9987 26.6668ZM19.9987 10.8335C21.4025 10.8335 22.7625 11.3224 23.845 12.2162C24.9275 13.1099 25.6651 14.3527 25.9309 15.7311C26.1967 17.1095 25.9742 18.5375 25.3017 19.7697C24.6291 21.0019 23.5485 21.9614 22.2454 22.4835C22.0533 22.5564 21.8797 22.6708 21.737 22.8185C21.6637 22.9018 21.652 23.0085 21.6537 23.1185L21.6654 23.3335C21.6649 23.7583 21.5022 24.1669 21.2106 24.4758C20.919 24.7847 20.5204 24.9706 20.0964 24.9954C19.6723 25.0203 19.2547 24.8824 18.929 24.6097C18.6032 24.3371 18.3939 23.9503 18.3437 23.5285L18.332 23.3335V22.9168C18.332 20.9952 19.882 19.8418 21.0054 19.3902C21.4626 19.2076 21.8614 18.9039 22.159 18.5118C22.4566 18.1197 22.6418 17.6539 22.6947 17.1644C22.7476 16.675 22.6661 16.1804 22.4591 15.7337C22.252 15.2871 21.9273 14.9053 21.5196 14.6293C21.1119 14.3533 20.6368 14.1936 20.1452 14.1673C19.6536 14.141 19.1641 14.2491 18.7294 14.4799C18.2946 14.7108 17.9309 15.0558 17.6774 15.4778C17.4238 15.8998 17.29 16.3829 17.2904 16.8752C17.2904 17.3172 17.1148 17.7411 16.8022 18.0537C16.4896 18.3662 16.0657 18.5418 15.6237 18.5418C15.1817 18.5418 14.7577 18.3662 14.4452 18.0537C14.1326 17.7411 13.957 17.3172 13.957 16.8752C13.957 15.2728 14.5936 13.7361 15.7266 12.6031C16.8596 11.47 18.3963 10.8335 19.9987 10.8335Z" fill="#111111"/>
</svg>
